<?xml version="1.0" standalone="no"?>
<!DOCTYPE svg PUBLIC "-//W3C//DTD SVG 20010904//EN"
 "http://www.w3.org/TR/2001/REC-SVG-20010904/DTD/svg10.dtd">
<svg version="1.0" xmlns="http://www.w3.org/2000/svg"
 width="2048.000000pt" height="2048.000000pt" viewBox="0 0 2048.000000 2048.000000"
 preserveAspectRatio="xMidYMid meet">

<g transform="translate(0.000000,2048.000000) scale(0.100000,-0.100000)"
fill="#000000" stroke="none">
<path d="M13050 20470 c-80 -5 -323 -23 -540 -40 -217 -16 -2834 -210 -5815
-430 -2981 -220 -5465 -404 -5520 -410 -560 -62 -931 -339 -1090 -813 -19 -57
-45 -160 -58 -228 l-22 -124 0 -6415 c0 -5308 2 -6432 13 -6514 51 -375 216
-754 517 -1192 75 -107 2688 -3516 2849 -3714 250 -309 526 -483 871 -549 254
-50 503 -51 1225 -7 228 15 528 33 665 41 138 8 322 19 410 25 88 5 234 14
325 20 91 5 240 14 333 20 92 5 240 14 330 20 89 5 236 14 327 20 91 5 280 17
420 25 140 9 363 22 495 30 132 8 429 26 660 40 231 14 530 32 665 40 135 8
322 20 415 25 94 6 278 17 410 25 132 8 389 24 570 35 568 34 978 59 1320 80
182 11 742 45 1245 75 503 30 1061 64 1240 75 179 11 888 54 1575 95 688 41
1318 82 1400 90 845 88 1238 451 1305 1205 8 90 10 2110 8 7275 -3 6834 -4
7153 -21 7210 -72 241 -194 368 -717 742 -107 77 -571 404 -1030 728 -1084
764 -1777 1252 -2340 1650 -529 373 -656 460 -804 545 -268 154 -498 235 -799
281 -154 24 -595 33 -837 19z m511 -1150 c451 -45 770 -177 1204 -499 72 -54
531 -387 1020 -741 490 -354 911 -664 938 -689 85 -82 108 -165 57 -202 -23
-16 -586 -52 -5690 -359 -3116 -187 -5802 -350 -5970 -361 -562 -37 -864 -27
-1088 37 -118 33 -304 128 -437 222 -106 75 -1695 1333 -1764 1396 -38 35 -81
118 -81 156 1 41 35 105 71 133 110 82 198 100 644 132 198 14 448 32 555 40
107 9 875 65 1705 125 831 61 1600 117 1710 125 110 8 292 22 405 30 113 8
360 26 550 40 190 14 500 36 690 50 190 14 530 39 755 55 226 17 473 35 550
40 161 12 713 53 1015 75 113 8 545 40 960 70 969 71 1123 82 1480 110 329 25
566 30 721 15z m4320 -3530 c208 -70 325 -251 358 -558 16 -146 16 -12032 0
-12205 -23 -252 -84 -412 -202 -531 -111 -112 -233 -169 -429 -201 -56 -10
-2524 -157 -6308 -376 -5505 -319 -6237 -360 -6410 -355 -209 5 -296 18 -410
63 -230 91 -358 259 -405 530 -13 75 -15 827 -15 6183 0 5422 2 6107 15 6186
28 164 69 257 147 340 97 103 228 162 406 183 53 7 869 57 1812 112 943 54
2215 129 2825 164 611 36 1567 92 2125 125 2608 153 3198 187 4665 275 896 54
1611 92 1666 90 62 -3 119 -12 160 -25z"/>
<path d="M14790 13540 c-943 -56 -1335 -83 -1385 -94 -38 -9 -112 -37 -164
-62 -77 -37 -108 -61 -176 -127 -89 -90 -131 -155 -167 -262 -19 -58 -23 -91
-23 -192 0 -67 3 -124 7 -128 4 -4 237 -34 519 -66 282 -33 514 -61 516 -63 2
-1 2 -1237 1 -2747 l-3 -2744 -2027 3106 -2028 3105 -37 -3 c-21 -2 -677 -46
-1458 -98 -781 -52 -1458 -99 -1504 -105 -285 -37 -503 -221 -598 -505 -24
-73 -27 -94 -27 -237 -1 -86 1 -159 4 -161 3 -3 205 -21 450 -41 245 -20 469
-38 498 -42 l52 -5 -2 -3922 -3 -3921 -370 -102 c-203 -56 -390 -113 -414
-125 -136 -72 -234 -259 -235 -449 0 -47 6 -102 13 -123 l13 -38 71 6 c40 3
230 14 422 25 193 11 546 31 785 45 986 57 1124 65 1315 75 438 23 556 44 730
129 149 74 248 164 325 296 35 61 76 181 85 251 l7 52 -64 14 c-35 8 -312 70
-615 139 l-553 124 0 2964 0 2964 1948 -3064 c1592 -2506 1966 -3088 2052
-3194 444 -551 628 -657 1140 -659 161 0 218 4 325 23 288 51 607 164 945 335
l145 73 3 4382 c1 2409 3 4381 5 4381 1 0 157 31 347 69 260 51 358 75 398 95
181 92 263 324 219 621 l-12 80 -80 1 c-44 1 -672 -33 -1395 -76z"/>
</g>
</svg>
